<?xml version="1.0" encoding="utf-8"?>
<COLLADA xmlns="http://www.collada.org/2005/11/COLLADASchema" version="1.4.1" xmlns:xsi="http://www.w3.org/2001/XMLSchema-instance">
  <asset>
    <contributor>
      <author>Blender User</author>
      <authoring_tool>Blender 4.5.6 LTS commit date:2026-01-19, commit time:19:36, hash:a78963ed6435</authoring_tool>
    </contributor>
    <created>2026-01-21T22:01:33</created>
    <modified>2026-01-21T22:01:33</modified>
    <unit name="meter" meter="1"/>
    <up_axis>Z_UP</up_axis>
  </asset>
  <library_cameras>
    <camera id="Camera-camera" name="Camera.001">
      <optics>
        <technique_common>
          <perspective>
            <xfov sid="xfov">39.59775</xfov>
            <aspect_ratio>1.777778</aspect_ratio>
            <znear sid="znear">0.1</znear>
            <zfar sid="zfar">100</zfar>
          </perspective>
        </technique_common>
      </optics>
      <extra>
        <technique profile="blender">
          <shiftx sid="shiftx" type="float">0</shiftx>
          <shifty sid="shifty" type="float">0</shifty>
          <dof_distance sid="dof_distance" type="float">10</dof_distance>
        </technique>
      </extra>
    </camera>
  </library_cameras>
  <library_lights>
    <light id="Light-light" name="Light.001">
      <technique_common>
        <point>
          <color sid="color">1000 1000 1000</color>
          <constant_attenuation>1</constant_attenuation>
          <linear_attenuation>0</linear_attenuation>
          <quadratic_attenuation>0</quadratic_attenuation>
        </point>
      </technique_common>
      <extra>
        <technique profile="blender">
          <type sid="type" type="int">0</type>
          <flag sid="flag" type="int">0</flag>
          <mode sid="mode" type="int">1</mode>
          <red sid="red" type="float">1</red>
          <green sid="green" type="float">1</green>
          <blue sid="blue" type="float">1</blue>
          <energy sid="blender_energy" type="float">1000</energy>
          <spotsize sid="spotsize" type="float">75</spotsize>
          <spotblend sid="spotblend" type="float">0.15</spotblend>
          <clipsta sid="clipsta" type="float">0.04999995</clipsta>
          <clipend sid="clipend" type="float">30.002</clipend>
          <radius sid="radius" type="float">0</radius>
          <area_shape sid="area_shape" type="int">1</area_shape>
          <area_size sid="area_size" type="float">0.1</area_size>
          <area_sizey sid="area_sizey" type="float">0.1</area_sizey>
          <area_sizez sid="area_sizez" type="float">1</area_sizez>
        </technique>
      </extra>
    </light>
  </library_lights>
  <library_effects>
    <effect id="Material_002-effect">
      <profile_COMMON>
        <newparam sid="plywood256x256_jpg-surface">
          <surface type="2D">
            <init_from>plywood256x256_jpg</init_from>
          </surface>
        </newparam>
        <newparam sid="plywood256x256_jpg-sampler">
          <sampler2D>
            <source>plywood256x256_jpg-surface</source>
          </sampler2D>
        </newparam>
        <technique sid="common">
          <lambert>
            <emission>
              <color sid="emission">0 0 0 1</color>
            </emission>
            <diffuse>
              <texture texture="plywood256x256_jpg-sampler" texcoord="Plane_001-mesh-map-0"/>
            </diffuse>
            <index_of_refraction>
              <float sid="ior">1</float>
            </index_of_refraction>
          </lambert>
        </technique>
      </profile_COMMON>
    </effect>
    <effect id="Material_001-effect">
      <profile_COMMON>
        <newparam sid="plywood256x256_jpg-surface">
          <surface type="2D">
            <init_from>plywood256x256_jpg</init_from>
          </surface>
        </newparam>
        <newparam sid="plywood256x256_jpg-sampler">
          <sampler2D>
            <source>plywood256x256_jpg-surface</source>
          </sampler2D>
        </newparam>
        <technique sid="common">
          <lambert>
            <emission>
              <color sid="emission">0 0 0 1</color>
            </emission>
            <diffuse>
              <texture texture="plywood256x256_jpg-sampler" texcoord="Plane_006-mesh-map-0"/>
            </diffuse>
            <index_of_refraction>
              <float sid="ior">1</float>
            </index_of_refraction>
          </lambert>
        </technique>
      </profile_COMMON>
    </effect>
  </library_effects>
  <library_images>
    <image id="plywood256x256_jpg" name="plywood256x256_jpg">
      <init_from>plywood256x256.jpg</init_from>
    </image>
  </library_images>
  <library_materials>
    <material id="Material_002-material" name="Material.002">
      <instance_effect url="#Material_002-effect"/>
    </material>
    <material id="Material_001-material" name="Material.001">
      <instance_effect url="#Material_001-effect"/>
    </material>
  </library_materials>
  <library_geometries>
    <geometry id="Plane_004-mesh" name="Plane.004">
      <mesh>
        <source id="Plane_004-mesh-positions">
          <float_array id="Plane_004-mesh-positions-array" count="18">0 1 0.2881356 0 -1 0.2881356 -1 -0.9999997 0 -0.9999995 1 0 0 1 0 0 -1 0</float_array>
          <technique_common>
            <accessor source="#Plane_004-mesh-positions-array" count="6" stride="3">
              <param name="X" type="float"/>
              <param name="Y" type="float"/>
              <param name="Z" type="float"/>
            </accessor>
          </technique_common>
        </source>
        <source id="Plane_004-mesh-normals">
          <float_array id="Plane_004-mesh-normals-array" count="18">-2.98023e-7 -1 0 0 1 0 1 0 0 -0.2768716 0 0.960907 -0.2768715 0 0.9609071 0 0 -1</float_array>
          <technique_common>
            <accessor source="#Plane_004-mesh-normals-array" count="6" stride="3">
              <param name="X" type="float"/>
              <param name="Y" type="float"/>
              <param name="Z" type="float"/>
            </accessor>
          </technique_common>
        </source>
        <source id="Plane_004-mesh-map-0">
          <float_array id="Plane_004-mesh-map-0-array" count="48">0.9998202 0.3989943 0.8937165 0.030752 0.9998202 1.79746e-4 0.8937166 0.798168 0.8937166 0.3993538 0.9998203 0.429926 0.8933572 0.7666269 0.7829368 0.766627 0.7829368 1.79744e-4 0.7829368 1.79744e-4 0.8933572 1.79752e-4 0.8933572 0.7666269 0.3989942 0.766627 1.79933e-4 0.766627 1.79736e-4 1.798e-4 0.3989942 0.766627 1.79736e-4 1.798e-4 0.3989942 1.79708e-4 0.7825773 0.7666269 0.3993537 0.7666268 0.7825773 1.79717e-4 0.3993539 1.79731e-4 0.7825773 1.79717e-4 0.3993537 0.7666268</float_array>
          <technique_common>
            <accessor source="#Plane_004-mesh-map-0-array" count="24" stride="2">
              <param name="S" type="float"/>
              <param name="T" type="float"/>
            </accessor>
          </technique_common>
        </source>
        <vertices id="Plane_004-mesh-vertices">
          <input semantic="POSITION" source="#Plane_004-mesh-positions"/>
        </vertices>
        <triangles material="Material_002-material" count="8">
          <input semantic="VERTEX" source="#Plane_004-mesh-vertices" offset="0"/>
          <input semantic="NORMAL" source="#Plane_004-mesh-normals" offset="1"/>
          <input semantic="TEXCOORD" source="#Plane_004-mesh-map-0" offset="2" set="0"/>
          <p>2 0 0 5 0 1 1 0 2 3 1 3 0 1 4 4 1 5 1 2 6 5 2 7 4 2 8 4 2 9 0 2 10 1 2 11 0 3 12 3 3 13 2 3 14 0 4 15 2 4 16 1 4 17 5 5 18 2 5 19 4 5 20 3 5 21 4 5 22 2 5 23</p>
        </triangles>
      </mesh>
    </geometry>
    <geometry id="Plane_003-mesh" name="Plane.003">
      <mesh>
        <source id="Plane_003-mesh-positions">
          <float_array id="Plane_003-mesh-positions-array" count="24">0 1 0.2881356 0 -1 0.2881356 -1 -0.9999997 0 -0.9999995 1 0 -1 -0.9999997 -0.2862721 -0.9999995 1 -0.2862721 0 1 -0.2862721 0 -1 -0.2862721</float_array>
          <technique_common>
            <accessor source="#Plane_003-mesh-positions-array" count="8" stride="3">
              <param name="X" type="float"/>
              <param name="Y" type="float"/>
              <param name="Z" type="float"/>
            </accessor>
          </technique_common>
        </source>
        <source id="Plane_003-mesh-normals">
          <float_array id="Plane_003-mesh-normals-array" count="27">-0.2768716 0 0.960907 -0.2768715 0 0.9609071 0 1 0 1 0 0 0 0 -1 -2.98023e-7 -1 0 -1 2.0821e-7 0 -2.98023e-7 -1 0 -1 3.12315e-7 0</float_array>
          <technique_common>
            <accessor source="#Plane_003-mesh-normals-array" count="9" stride="3">
              <param name="X" type="float"/>
              <param name="Y" type="float"/>
              <param name="Z" type="float"/>
            </accessor>
          </technique_common>
        </source>
        <source id="Plane_003-mesh-map-0">
          <float_array id="Plane_003-mesh-map-0-array" count="72">0.3468065 0.6663075 2.06562e-4 0.6663075 2.06541e-4 2.06541e-4 0.3468065 0.6663075 2.06541e-4 2.06541e-4 0.3468067 2.06535e-4 0.3832154 0.9997913 0.1919443 0.6667205 0.2872991 0.6667512 0.6806833 2.06534e-4 0.8719901 0.6663075 0.6806833 0.6663074 0.6802702 0.6663075 0.3472198 0.6663075 0.6802703 2.06615e-4 0.6802703 2.06615e-4 0.3472198 0.6663075 0.3472198 2.06541e-4 0.09555548 0.9997935 2.06539e-4 0.6667447 0.1915073 0.6667206 0.8724031 2.06485e-4 0.9677461 0.6663075 0.8724031 0.6663075 0.3832154 0.9997913 0.1919204 0.9997913 0.1919443 0.6667205 0.6806833 2.06534e-4 0.8719901 2.06493e-4 0.8719901 0.6663075 0.09555548 0.9997935 2.06517e-4 0.9997744 2.06539e-4 0.6667447 0.8724031 2.06485e-4 0.9677461 2.06504e-4 0.9677461 0.6663075</float_array>
          <technique_common>
            <accessor source="#Plane_003-mesh-map-0-array" count="36" stride="2">
              <param name="S" type="float"/>
              <param name="T" type="float"/>
            </accessor>
          </technique_common>
        </source>
        <vertices id="Plane_003-mesh-vertices">
          <input semantic="POSITION" source="#Plane_003-mesh-positions"/>
        </vertices>
        <triangles material="Material_001-material" count="12">
          <input semantic="VERTEX" source="#Plane_003-mesh-vertices" offset="0"/>
          <input semantic="NORMAL" source="#Plane_003-mesh-normals" offset="1"/>
          <input semantic="TEXCOORD" source="#Plane_003-mesh-map-0" offset="2" set="0"/>
          <p>0 0 0 3 0 1 2 0 2 0 1 3 2 1 4 1 1 5 0 2 6 5 2 7 3 2 8 1 3 9 6 3 10 0 3 11 5 4 12 6 4 13 4 4 14 4 4 15 6 4 16 7 4 17 2 5 18 7 5 19 1 5 20 3 6 21 4 6 22 2 6 23 0 2 24 6 2 25 5 2 26 1 3 27 7 3 28 6 3 29 2 7 30 4 7 31 7 7 32 3 8 33 5 8 34 4 8 35</p>
        </triangles>
      </mesh>
    </geometry>
    <geometry id="Plane_001-mesh" name="Plane.001">
      <mesh>
        <source id="Plane_001-mesh-positions">
          <float_array id="Plane_001-mesh-positions-array" count="18">0 1 0.2881356 0 -1 0.2881356 -1 -0.9999997 0 -0.9999995 1 0 0 1 0 0 -1 0</float_array>
          <technique_common>
            <accessor source="#Plane_001-mesh-positions-array" count="6" stride="3">
              <param name="X" type="float"/>
              <param name="Y" type="float"/>
              <param name="Z" type="float"/>
            </accessor>
          </technique_common>
        </source>
        <source id="Plane_001-mesh-normals">
          <float_array id="Plane_001-mesh-normals-array" count="18">-2.98023e-7 -1 0 0 1 0 1 0 0 -0.2768716 0 0.960907 -0.2768715 0 0.9609071 0 0 -1</float_array>
          <technique_common>
            <accessor source="#Plane_001-mesh-normals-array" count="6" stride="3">
              <param name="X" type="float"/>
              <param name="Y" type="float"/>
              <param name="Z" type="float"/>
            </accessor>
          </technique_common>
        </source>
        <source id="Plane_001-mesh-map-0">
          <float_array id="Plane_001-mesh-map-0-array" count="48">0.9998202 0.3989943 0.8937165 0.030752 0.9998202 1.79746e-4 0.8937166 0.798168 0.8937166 0.3993538 0.9998203 0.429926 0.8933572 0.7666269 0.7829368 0.766627 0.7829368 1.79744e-4 0.7829368 1.79744e-4 0.8933572 1.79752e-4 0.8933572 0.7666269 0.3989942 0.766627 1.79933e-4 0.766627 1.79736e-4 1.798e-4 0.3989942 0.766627 1.79736e-4 1.798e-4 0.3989942 1.79708e-4 0.7825773 0.7666269 0.3993537 0.7666268 0.7825773 1.79717e-4 0.3993539 1.79731e-4 0.7825773 1.79717e-4 0.3993537 0.7666268</float_array>
          <technique_common>
            <accessor source="#Plane_001-mesh-map-0-array" count="24" stride="2">
              <param name="S" type="float"/>
              <param name="T" type="float"/>
            </accessor>
          </technique_common>
        </source>
        <vertices id="Plane_001-mesh-vertices">
          <input semantic="POSITION" source="#Plane_001-mesh-positions"/>
        </vertices>
        <triangles material="Material_002-material" count="8">
          <input semantic="VERTEX" source="#Plane_001-mesh-vertices" offset="0"/>
          <input semantic="NORMAL" source="#Plane_001-mesh-normals" offset="1"/>
          <input semantic="TEXCOORD" source="#Plane_001-mesh-map-0" offset="2" set="0"/>
          <p>2 0 0 5 0 1 1 0 2 3 1 3 0 1 4 4 1 5 1 2 6 5 2 7 4 2 8 4 2 9 0 2 10 1 2 11 0 3 12 3 3 13 2 3 14 0 4 15 2 4 16 1 4 17 5 5 18 2 5 19 4 5 20 3 5 21 4 5 22 2 5 23</p>
        </triangles>
      </mesh>
    </geometry>
    <geometry id="Plane_006-mesh" name="Plane.006">
      <mesh>
        <source id="Plane_006-mesh-positions">
          <float_array id="Plane_006-mesh-positions-array" count="24">0 1 0.2881356 0 -1 0.2881356 -1 -0.9999997 0 -0.9999995 1 0 -1 -0.9999997 -0.2862721 -0.9999995 1 -0.2862721 0 1 -0.2862721 0 -1 -0.2862721</float_array>
          <technique_common>
            <accessor source="#Plane_006-mesh-positions-array" count="8" stride="3">
              <param name="X" type="float"/>
              <param name="Y" type="float"/>
              <param name="Z" type="float"/>
            </accessor>
          </technique_common>
        </source>
        <source id="Plane_006-mesh-normals">
          <float_array id="Plane_006-mesh-normals-array" count="27">-0.2768716 0 0.960907 -0.2768715 0 0.9609071 0 1 0 1 0 0 0 0 -1 -2.98023e-7 -1 0 -1 2.0821e-7 0 -2.98023e-7 -1 0 -1 3.12315e-7 0</float_array>
          <technique_common>
            <accessor source="#Plane_006-mesh-normals-array" count="9" stride="3">
              <param name="X" type="float"/>
              <param name="Y" type="float"/>
              <param name="Z" type="float"/>
            </accessor>
          </technique_common>
        </source>
        <source id="Plane_006-mesh-map-0">
          <float_array id="Plane_006-mesh-map-0-array" count="72">0.3468065 0.6663075 2.06562e-4 0.6663075 2.06541e-4 2.06541e-4 0.3468065 0.6663075 2.06541e-4 2.06541e-4 0.3468067 2.06535e-4 0.3832154 0.9997913 0.1919443 0.6667205 0.2872991 0.6667512 0.6806833 2.06534e-4 0.8719901 0.6663075 0.6806833 0.6663074 0.6802702 0.6663075 0.3472198 0.6663075 0.6802703 2.06615e-4 0.6802703 2.06615e-4 0.3472198 0.6663075 0.3472198 2.06541e-4 0.09555548 0.9997935 2.06539e-4 0.6667447 0.1915073 0.6667206 0.8724031 2.06485e-4 0.9677461 0.6663075 0.8724031 0.6663075 0.3832154 0.9997913 0.1919204 0.9997913 0.1919443 0.6667205 0.6806833 2.06534e-4 0.8719901 2.06493e-4 0.8719901 0.6663075 0.09555548 0.9997935 2.06517e-4 0.9997744 2.06539e-4 0.6667447 0.8724031 2.06485e-4 0.9677461 2.06504e-4 0.9677461 0.6663075</float_array>
          <technique_common>
            <accessor source="#Plane_006-mesh-map-0-array" count="36" stride="2">
              <param name="S" type="float"/>
              <param name="T" type="float"/>
            </accessor>
          </technique_common>
        </source>
        <vertices id="Plane_006-mesh-vertices">
          <input semantic="POSITION" source="#Plane_006-mesh-positions"/>
        </vertices>
        <triangles material="Material_001-material" count="12">
          <input semantic="VERTEX" source="#Plane_006-mesh-vertices" offset="0"/>
          <input semantic="NORMAL" source="#Plane_006-mesh-normals" offset="1"/>
          <input semantic="TEXCOORD" source="#Plane_006-mesh-map-0" offset="2" set="0"/>
          <p>0 0 0 3 0 1 2 0 2 0 1 3 2 1 4 1 1 5 0 2 6 5 2 7 3 2 8 1 3 9 6 3 10 0 3 11 5 4 12 6 4 13 4 4 14 4 4 15 6 4 16 7 4 17 2 5 18 7 5 19 1 5 20 3 6 21 4 6 22 2 6 23 0 2 24 6 2 25 5 2 26 1 3 27 7 3 28 6 3 29 2 7 30 4 7 31 7 7 32 3 8 33 5 8 34 4 8 35</p>
        </triangles>
      </mesh>
    </geometry>
  </library_geometries>
  <library_visual_scenes>
    <visual_scene id="Scene" name="Scene">
      <node id="Plane_004" name="Plane.004" type="NODE">
        <matrix sid="transform">-9.61232e-8 -0.295 0 -0.3000001 0.59 -4.80616e-8 0 0.59 0 0 0.5899999 0 0 0 0 1</matrix>
        <instance_geometry url="#Plane_004-mesh" name="Plane.004">
          <bind_material>
            <technique_common>
              <instance_material symbol="Material_002-material" target="#Material_002-material">
                <bind_vertex_input semantic="Plane_001-mesh-map-0" input_semantic="TEXCOORD" input_set="0"/>
              </instance_material>
            </technique_common>
          </bind_material>
        </instance_geometry>
      </node>
      <node id="Plane_002" name="Plane.002" type="NODE">
        <matrix sid="transform">-0.59 1.14877e-7 0 0.01000005 -2.29754e-7 -0.295 0 0.305 0 0 0.5899999 0.17 0 0 0 1</matrix>
        <instance_geometry url="#Plane_003-mesh" name="Plane.002">
          <bind_material>
            <technique_common>
              <instance_material symbol="Material_001-material" target="#Material_001-material">
                <bind_vertex_input semantic="Plane_006-mesh-map-0" input_semantic="TEXCOORD" input_set="0"/>
              </instance_material>
            </technique_common>
          </bind_material>
        </instance_geometry>
      </node>
      <node id="Light" name="Light" type="NODE">
        <matrix sid="transform">-0.2908646 -0.7711008 0.5663933 4.076245 0.9551712 -0.1998833 0.2183913 1.005454 -0.05518912 0.6045247 0.7946723 5.903862 0 0 0 1</matrix>
        <instance_light url="#Light-light"/>
      </node>
      <node id="Camera" name="Camera" type="NODE">
        <matrix sid="transform">0.6859207 -0.3240135 0.6515582 7.358891 0.7276763 0.3054209 -0.6141704 -6.925791 -4.01133e-9 0.8953956 0.4452714 4.958309 0 0 0 1</matrix>
        <instance_camera url="#Camera-camera"/>
      </node>
      <node id="Plane_001" name="Plane.001" type="NODE">
        <matrix sid="transform">4.45438e-8 0.295 0 0.3 -0.59 2.22719e-8 0 -0.59 0 0 0.5899999 0 0 0 0 1</matrix>
        <instance_geometry url="#Plane_001-mesh" name="Plane.001">
          <bind_material>
            <technique_common>
              <instance_material symbol="Material_002-material" target="#Material_002-material">
                <bind_vertex_input semantic="Plane_001-mesh-map-0" input_semantic="TEXCOORD" input_set="0"/>
              </instance_material>
            </technique_common>
          </bind_material>
        </instance_geometry>
      </node>
      <node id="Plane_003" name="Plane.003" type="NODE">
        <matrix sid="transform">-0.59 1.14877e-7 0 -0.59 -2.29754e-7 -0.295 0 -0.295 0 0 0.5899999 0.17 0 0 0 1</matrix>
        <instance_geometry url="#Plane_006-mesh" name="Plane.003">
          <bind_material>
            <technique_common>
              <instance_material symbol="Material_001-material" target="#Material_001-material">
                <bind_vertex_input semantic="Plane_006-mesh-map-0" input_semantic="TEXCOORD" input_set="0"/>
              </instance_material>
            </technique_common>
          </bind_material>
        </instance_geometry>
      </node>
    </visual_scene>
  </library_visual_scenes>
  <scene>
    <instance_visual_scene url="#Scene"/>
  </scene>
</COLLADA>